Coordinates
version=1
nRows=21
nColumns=38
inDegrees=no

Units are S.I. units (second, meters, Newtons, ...)
If the header above contains a line with 'inDegrees', this indicates whether rotational values are in degrees (yes) or radians (no).

endheader
time	pelvis_tilt	pelvis_list	pelvis_rotation	pelvis_tx	pelvis_ty	pelvis_tz	hip_flexion_r	hip_adduction_r	hip_rotation_r	knee_angle_r	ankle_angle_r	subtalar_angle_r	mtp_angle_r	hip_flexion_l	hip_adduction_l	hip_rotation_l	knee_angle_l	ankle_angle_l	subtalar_angle_l	mtp_angle_l	lumbar_extension	lumbar_bending	lumbar_rotation	arm_flex_r	arm_add_r	arm_rot_r	elbow_flex_r	pro_sup_r	wrist_flex_r	wrist_dev_r	arm_flex_l	arm_add_l	arm_rot_l	elbow_flex_l	pro_sup_l	wrist_flex_l	wrist_dev_l
22.29	0.535037	1.37272	0.814757	0.788534	-0.492995	0.962997	0.327367	0.0873346	-0.113755	0.328747	0.0623648	0	0	0.0261871	-0.152999	-0.237882	0.0999219	0.14461	0	0	-0.034011	0.166086	0.0423642	0.830395	-0.286168	0.458929	1.07929	1.5708	0	0	0.601286	-0.172718	0.151968	1.22132	1.5708	0	0
22.3	0.53841	1.37435	0.813667	0.791007	-0.491647	0.963112	0.324629	0.0888557	-0.114759	0.330941	0.0647159	0	0	0.0248528	-0.155308	-0.236815	0.103854	0.145132	0	0	-0.0335291	0.165794	0.0424923	0.82521	-0.284363	0.458549	1.08235	1.5708	0	0	0.597228	-0.174921	0.149386	1.22197	1.5708	0	0
22.31	0.541586	1.3764	0.813122	0.793419	-0.490282	0.963262	0.321499	0.0901261	-0.11561	0.332815	0.0670311	0	0	0.0235549	-0.15727	-0.235797	0.108242	0.145473	0	0	-0.0332022	0.165087	0.0421597	0.821041	-0.282459	0.460366	1.08282	1.5708	0	0	0.593641	-0.177	0.147225	1.22231	1.5708	0	0
22.32	0.544667	1.37801	0.813092	0.795677	-0.488821	0.963435	0.318462	0.0913372	-0.117232	0.334317	0.0692699	0	0	0.0227837	-0.159426	-0.234527	0.1128	0.144759	0	0	-0.0344263	0.164605	0.0343887	0.823092	-0.275024	0.470211	1.07736	1.5708	0	0	0.577419	-0.140101	-0.072846	1.34612	0.957715	0	0
22.33	0.466978	1.37814	0.902524	0.796777	-0.489171	0.963378	0.333611	0.0770979	-0.124545	0.344396	0.0732842	0	0	0.0392741	-0.154028	-0.263594	0.110605	0.135219	0	0	-0.0212645	0.151981	0.0298838	0.815394	-0.275455	0.463114	1.07562	1.5708	0	0	0.591019	-0.181629	0.145399	1.21991	1.5708	0	0
22.34	0.55168	1.38399	0.813188	0.800136	-0.486187	0.963994	0.310561	0.0917006	-0.119999	0.337827	0.0744724	0	0	0.0200127	-0.162189	-0.231988	0.122824	0.142139	0	0	-0.032397	0.162072	0.0369575	0.814723	-0.27567	0.471221	1.07416	1.5708	0	0	0.587243	-0.179824	0.139367	1.21984	1.5708	0	0
22.35	0.552381	1.38585	0.815811	0.802197	-0.484777	0.964263	0.3076	0.0920673	-0.121543	0.339032	0.0765337	0	0	0.0199681	-0.163797	-0.230891	0.127957	0.141935	0	0	-0.0334102	0.161075	0.0289112	0.817771	-0.268685	0.478959	1.06991	1.5708	0	0	0.570797	-0.142175	-0.0821473	1.34244	0.95678	0	0
22.36	0.554072	1.38853	0.817346	0.804271	-0.483478	0.964584	0.304083	0.0920983	-0.122486	0.340358	0.0782818	0	0	0.0193087	-0.165129	-0.230281	0.133363	0.141637	0	0	-0.0331852	0.159622	0.0276786	0.815841	-0.267552	0.479959	1.07024	1.5708	0	0	0.569596	-0.142234	-0.084656	1.34035	0.948831	0	0
22.37	0.56027	1.3924	0.814846	0.806346	-0.482279	0.964989	0.299134	0.0917751	-0.12439	0.341657	0.0804542	0	0	0.0175748	-0.166269	-0.228615	0.139029	0.141179	0	0	-0.0323357	0.158037	0.0322018	0.809865	-0.271665	0.475946	1.07311	1.5708	0	0	0.581161	-0.182617	0.1347	1.21508	1.5708	0	0
22.38	0.563197	1.39491	0.814437	0.808377	-0.481041	0.965312	0.295444	0.0922134	-0.125012	0.342418	0.0817871	0	0	0.0170981	-0.167768	-0.227926	0.144698	0.140816	0	0	-0.0321339	0.156915	0.0309428	0.808432	-0.270571	0.477968	1.07262	1.5708	0	0	0.578809	-0.181963	0.12991	1.21319	1.5708	0	0
22.39	0.568844	1.39758	0.811063	0.810392	-0.479835	0.965635	0.291127	0.0929729	-0.125751	0.342837	0.0831006	0	0	0.0162554	-0.169505	-0.227094	0.150747	0.140627	0	0	-0.0323379	0.155866	0.029674	0.807469	-0.269538	0.481352	1.07072	1.5708	0	0	0.577187	-0.182322	0.128126	1.21136	1.5708	0	0
22.4	0.576585	1.40022	0.805221	0.812421	-0.478688	0.965942	0.286419	0.0941653	-0.126215	0.342856	0.084369	0	0	0.0152631	-0.171457	-0.225615	0.156984	0.140473	0	0	-0.032742	0.155022	0.0284322	0.807004	-0.26829	0.48573	1.06772	1.5708	0	0	0.575894	-0.183072	0.127291	1.20956	1.5708	0	0
22.41	0.585964	1.40288	0.797509	0.814454	-0.477591	0.966238	0.28136	0.0956283	-0.126444	0.342492	0.0855705	0	0	0.0142438	-0.173528	-0.223812	0.163504	0.140409	0	0	-0.0333751	0.154365	0.0271072	0.806874	-0.266709	0.490562	1.06446	1.5708	0	0	0.573552	-0.184934	0.126586	1.20829	1.5708	0	0
22.42	0.596169	1.40566	0.788649	0.816439	-0.476535	0.966524	0.27603	0.0970666	-0.126536	0.341812	0.0868516	0	0	0.0133343	-0.175581	-0.222566	0.170661	0.140698	0	0	-0.0343133	0.153808	0.0260169	0.806607	-0.264983	0.494849	1.06209	1.5708	0	0	0.570447	-0.187219	0.12486	1.2078	1.5708	0	0
22.43	0.606224	1.40862	0.779539	0.818388	-0.475551	0.96679	0.270688	0.0983264	-0.126523	0.341182	0.0882692	0	0	0.0126625	-0.177455	-0.221731	0.178722	0.141637	0	0	-0.0355449	0.153039	0.0253275	0.806076	-0.262928	0.497905	1.06047	1.5708	0	0	0.567729	-0.189485	0.123119	1.20738	1.5708	0	0
22.44	0.616061	1.41159	0.770226	0.820308	-0.474659	0.967018	0.265548	0.09953	-0.12631	0.340634	0.0897471	0	0	0.0124447	-0.179317	-0.22157	0.187694	0.142871	0	0	-0.0369758	0.152135	0.0253057	0.805159	-0.26076	0.499675	1.05992	1.5708	0	0	0.566206	-0.191294	0.121929	1.20673	1.5708	0	0
22.45	0.625494	1.41439	0.760991	0.822203	-0.473851	0.967207	0.26075	0.10077	-0.1259	0.340074	0.091117	0	0	0.012946	-0.18126	-0.221599	0.197656	0.144375	0	0	-0.038434	0.151279	0.0259071	0.803774	-0.258587	0.500276	1.06056	1.5708	0	0	0.563528	-0.193588	0.119657	1.20666	1.5708	0	0
22.46	0.634465	1.41713	0.751984	0.824072	-0.473116	0.967371	0.256238	0.101955	-0.125149	0.339573	0.0923183	0	0	0.0139899	-0.183058	-0.221188	0.208013	0.145716	0	0	-0.0399553	0.150351	0.0269353	0.802058	-0.256138	0.499899	1.06158	1.5708	0	0	0.561536	-0.195638	0.117567	1.20628	1.5708	0	0
22.47	0.643958	1.41981	0.742141	0.825933	-0.472469	0.967543	0.251993	0.103231	-0.124049	0.339324	0.0933073	0	0	0.0154223	-0.184803	-0.220349	0.218871	0.146978	0	0	-0.0417521	0.149438	0.0285482	0.800059	-0.253422	0.498678	1.06264	1.5708	0	0	0.560546	-0.197332	0.115947	1.20541	1.5708	0	0
22.48	0.655572	1.42229	0.72989	0.82779	-0.471929	0.967728	0.247964	0.105007	-0.122462	0.339306	0.0942429	0	0	0.0173068	-0.186911	-0.219274	0.230954	0.148656	0	0	-0.0439072	0.148818	0.0307709	0.79786	-0.250587	0.496878	1.06383	1.5708	0	0	0.560273	-0.198755	0.114514	1.20398	1.5708	0	0
22.49	0.66611	1.42441	0.718573	0.829584	-0.471496	0.967867	0.244604	0.106924	-0.120713	0.339597	0.0951597	0	0	0.0202718	-0.189229	-0.217998	0.244224	0.150193	0	0	-0.045846	0.148386	0.0332492	0.795852	-0.247816	0.495484	1.06484	1.5708	0	0	0.560323	-0.200122	0.113319	1.20209	1.5708	0	0
